<?xml version="1.0" encoding="UTF-8"?>
<svg xmlns="http://www.w3.org/2000/svg" version="1.1" viewBox="0 0 800 800">
  <!-- Generator: Adobe Illustrator 28.6.0, SVG Export Plug-In . SVG Version: 1.2.0 Build 709)  -->
  <g>
    <g id="Ebene_1">
      <g>
        <path d="M500,191.7h-100c-87.3,0-131.1,0-153,22-22,22-22,65.8-22,153v166.7c0,87.3,0,131.1,22,153s65.8,22,153,22h100c87.3,0,131.1,0,153-22,22-22,22-65.8,22-153v-166.7c0-87.3,0-131.1-22-153-22-22-65.8-22-153-22Z" style="fill: none;"/>
        <path d="M500,91.7h-133.3c-118.7,0-178.2,0-209.9,31.7-31.7,31.7-31.7,91.3-31.7,209.9v200c0,32.8,21.2,60.8,50.7,70.9-.7-20.2-.7-43.4-.7-70.9v-166.7c0-48.9,0-84.2,3.9-113.1,4.6-34,14.7-57.3,32.7-75.3,18.1-18.1,41.3-28.2,75.3-32.7,28.9-3.9,64.2-3.9,113.1-3.9h100c27.5,0,50.7,0,70.9.7-10.1-29.5-38.1-50.7-70.9-50.7Z" style="fill: none;"/>
        <path d="M175.7,604.3c-29.5-10.1-50.7-38.1-50.7-70.9v-200c0-118.7,0-178.2,31.7-209.9,31.7-31.7,91.3-31.7,209.9-31.7h133.3c32.8,0,60.8,21.2,70.9,50.7,15.7.5,29.5,1.5,42.1,3.2,3.6.5,7.1,1,10.4,1.6-9.4-59.7-61.2-105.5-123.5-105.5h-133.3c-64.8,0-111.7,0-149.6,5.1-43.5,5.8-73,18.6-95.7,41.3-22.7,22.7-35.4,52.2-41.3,95.7-5.1,38-5.1,84.8-5.1,149.6v200c0,62.3,45.8,114.1,105.5,123.5-.6-3.4-1.2-6.8-1.6-10.4-1.7-12.6-2.7-26.5-3.2-42.1Z" style="fill: #8fb9b7;"/>
        <path d="M500,191.7h-100c-87.3,0-131.1,0-153,22-22,22-22,65.8-22,153v166.7c0,87.3,0,131.1,22,153s65.8,22,153,22h100c87.3,0,131.1,0,153-22,22-22,22-65.8,22-153v-166.7c0-87.3,0-131.1-22-153-22-22-65.8-22-153-22Z" style="fill: none;"/>
        <path d="M721.1,253.6c-4.6-34-14.7-57.3-32.7-75.3-16.2-16.2-36.4-25.9-64.9-31.1-3.4-.6-6.8-1.2-10.4-1.6-12.6-1.7-26.5-2.7-42.1-3.2-20.2-.7-43.4-.7-70.9-.7h-100c-48.9,0-84.2,0-113.1,3.9-34,4.6-57.3,14.7-75.3,32.7-18.1,18.1-28.2,41.3-32.7,75.3-3.9,28.9-3.9,64.2-3.9,113.1v166.7c0,27.5,0,50.7.7,70.9.5,15.7,1.5,29.5,3.2,42.1.5,3.6,1,7.1,1.6,10.4,5.2,28.5,14.9,48.8,31.1,64.9,18.1,18.1,41.3,28.2,75.3,32.7,28.9,3.9,64.2,3.9,113.1,3.9h100c48.9,0,84.2,0,113.1-3.9,34-4.6,57.3-14.7,75.3-32.7s28.2-41.3,32.7-75.3c3.9-28.9,3.9-64.2,3.9-113.1v-166.7c0-48.9,0-84.2-3.9-113.1ZM675,533.3c0,87.3,0,131.1-22,153-22,22-65.8,22-153,22h-100c-87.3,0-131.1,0-153-22s-22-65.8-22-153v-166.7c0-87.3,0-131.1,22-153,22-22,65.8-22,153-22h100c87.3,0,131.1,0,153,22,22,22,22,65.8,22,153v166.7Z" style="fill: #408451;"/>
      </g>
    </g>
  </g>
</svg>