<?xml version="1.0" encoding="UTF-8"?>
<svg xmlns="http://www.w3.org/2000/svg" version="1.1" viewBox="0 0 800 800">
  <!-- Generator: Adobe Illustrator 28.6.0, SVG Export Plug-In . SVG Version: 1.2.0 Build 709)  -->
  <g>
    <g id="Ebene_1">
      <g style="isolation: isolate; opacity: .5;">
        <path d="M200,658.3c-68.9,0-125-56.1-125-125v-200c0-64.8,0-111.7,5.1-149.6,5.8-43.5,18.6-73,41.3-95.7,22.7-22.7,52.2-35.4,95.7-41.3,38-5.1,84.8-5.1,149.6-5.1h133.3c68.9,0,125,56.1,125,125h-50c0-41.4-33.6-75-75-75h-133.3c-118.7,0-178.2,0-209.9,31.7-31.7,31.7-31.7,91.3-31.7,209.9v200c0,41.4,33.6,75,75,75v50Z" style="fill: #1c274c;"/>
      </g>
      <path d="M500,758.3h-100c-48.9,0-84.2,0-113.1-3.9-34-4.6-57.3-14.7-75.3-32.7-18.1-18.1-28.2-41.3-32.7-75.3-3.9-28.9-3.9-64.2-3.9-113.1v-166.7c0-48.9,0-84.2,3.9-113.1,4.6-34,14.7-57.3,32.7-75.3,18.1-18.1,41.3-28.2,75.3-32.7,28.9-3.9,64.2-3.9,113.1-3.9h100c48.9,0,84.2,0,113.1,3.9,34,4.6,57.3,14.7,75.3,32.7,18.1,18.1,28.2,41.3,32.7,75.3,3.9,28.9,3.9,64.2,3.9,113.1v166.7c0,48.9,0,84.2-3.9,113.1-4.6,34-14.7,57.3-32.7,75.3s-41.3,28.2-75.3,32.7c-28.9,3.9-64.2,3.9-113.1,3.9ZM400,191.7c-87.3,0-131.1,0-153,22-22,22-22,65.8-22,153v166.7c0,87.3,0,131.1,22,153s65.8,22,153,22h100c87.3,0,131.1,0,153-22,22-22,22-65.8,22-153v-166.7c0-87.3,0-131.1-22-153-22-22-65.8-22-153-22h-100Z" style="fill: #1c274c;"/>
    </g>
  </g>
</svg>