<svg width="724" height="721" viewBox="0 0 724 721" fill="none" xmlns="http://www.w3.org/2000/svg">
<rect y="0.178711" width="724.001" height="719.849" rx="47" fill="#8FB9B7"/>
<path fill-rule="evenodd" clip-rule="evenodd" d="M40 680.028H641.652C652.871 679.989 663.621 675.515 671.555 667.581C679.488 659.647 683.962 648.898 684.001 637.678V466.814C684.001 461.254 681.792 455.922 677.861 451.99C673.929 448.058 668.596 445.85 663.036 445.85H620.267C597.526 445.85 575.716 436.816 559.635 420.735C543.554 404.654 534.52 382.845 534.52 360.103C534.52 337.362 543.554 315.552 559.635 299.471C575.716 283.391 597.526 274.357 620.267 274.357H663.036C668.596 274.357 673.929 272.148 677.861 268.216C681.792 264.285 684.001 258.952 684.001 253.392V82.5278C683.962 71.308 679.488 60.5589 671.555 52.6252C663.621 44.6916 652.871 40.2174 641.652 40.1787H40V82.3005L642.071 82.5278V232.427H620.267C586.405 232.427 553.93 245.878 529.986 269.822C506.042 293.766 492.59 326.241 492.59 360.103C492.59 393.965 506.042 426.44 529.986 450.384C553.93 474.328 586.405 487.779 620.267 487.779H642.071L641.652 638.098L40 637.871V680.028ZM71.6751 131.73C75.6068 127.799 80.9393 125.59 86.4995 125.59C92.0598 125.59 97.3923 127.799 101.324 131.73C105.256 135.662 107.464 140.995 107.464 146.555V189.281C107.464 194.841 105.256 200.174 101.324 204.106C97.3923 208.037 92.0598 210.246 86.4995 210.246C80.9393 210.246 75.6068 208.037 71.6751 204.106C67.7433 200.174 65.5345 194.841 65.5345 189.281V146.555C65.5345 140.995 67.7433 135.662 71.6751 131.73ZM86.4995 509.96C80.9393 509.96 75.6068 512.169 71.6751 516.101C67.7433 520.032 65.5345 525.365 65.5345 530.925V573.652C65.5345 579.212 67.7433 584.544 71.6751 588.476C75.6068 592.408 80.9393 594.617 86.4995 594.617C92.0598 594.617 97.3923 592.408 101.324 588.476C105.256 584.544 107.464 579.212 107.464 573.652V530.925C107.464 525.365 105.256 520.032 101.324 516.101C97.3923 512.169 92.0598 509.96 86.4995 509.96ZM71.6751 387.984C75.6068 384.053 80.9393 381.844 86.4995 381.844C92.0598 381.844 97.3923 384.053 101.324 387.984C105.256 391.916 107.464 397.248 107.464 402.809V445.514C107.464 451.074 105.256 456.407 101.324 460.339C97.3923 464.27 92.0598 466.479 86.4995 466.479C80.9393 466.479 75.6068 464.27 71.6751 460.339C67.7433 456.407 65.5345 451.074 65.5345 445.514V402.809C65.5345 397.248 67.7433 391.916 71.6751 387.984ZM86.4995 253.727C80.9393 253.727 75.6068 255.936 71.6751 259.868C67.7433 263.799 65.5345 269.132 65.5345 274.692V317.398C65.5345 322.958 67.7433 328.29 71.6751 332.222C75.6068 336.154 80.9393 338.363 86.4995 338.363C92.0598 338.363 97.3923 336.154 101.324 332.222C105.256 328.29 107.464 322.958 107.464 317.398V274.692C107.464 269.132 105.256 263.799 101.324 259.868C97.3923 255.936 92.0598 253.727 86.4995 253.727ZM235.98 211.043C223.405 211.063 211.117 214.81 200.67 221.81C190.222 228.809 182.083 238.748 177.28 250.37C172.477 261.992 171.226 274.777 173.684 287.11C176.143 299.443 182.201 310.771 191.093 319.663C199.985 328.556 211.313 334.613 223.646 337.072C235.979 339.53 248.764 338.279 260.386 333.476C272.009 328.673 281.947 320.534 288.947 310.087C295.946 299.639 299.693 287.352 299.714 274.776C299.686 257.881 292.962 241.687 281.016 229.74C269.07 217.794 252.875 211.07 235.98 211.043ZM235.98 296.37C231.689 296.349 227.5 295.056 223.943 292.655C220.386 290.253 217.622 286.851 215.998 282.878C214.375 278.905 213.967 274.54 214.824 270.335C215.682 266.13 217.767 262.274 220.816 259.254C223.866 256.234 227.742 254.186 231.955 253.37C236.168 252.553 240.529 253.003 244.486 254.665C248.443 256.326 251.818 259.124 254.185 262.703C256.552 266.283 257.805 270.485 257.784 274.776C257.745 280.527 255.429 286.029 251.342 290.076C247.256 294.124 241.732 296.387 235.98 296.37ZM371.453 392.586C381.933 385.603 394.249 381.886 406.843 381.907C423.678 381.945 439.813 388.651 451.718 400.555C463.623 412.46 470.328 428.595 470.367 445.43C470.387 458.024 466.67 470.34 459.687 480.82C452.703 491.299 442.767 499.471 431.136 504.3C419.505 509.129 406.703 510.398 394.35 507.946C381.998 505.494 370.651 499.432 361.746 490.527C352.841 481.622 346.778 470.275 344.327 457.923C341.875 445.57 343.144 432.768 347.973 421.137C352.802 409.506 360.973 399.57 371.453 392.586ZM391.499 460.878C395.569 464.948 401.088 467.234 406.843 467.234C412.597 467.234 418.117 464.948 422.186 460.878C426.255 456.809 428.541 451.29 428.541 445.535C428.541 439.78 426.255 434.261 422.186 430.192C418.117 426.123 412.597 423.837 406.843 423.837C401.088 423.837 395.569 426.123 391.499 430.192C387.43 434.261 385.144 439.78 385.144 445.535C385.144 451.29 387.43 456.809 391.499 460.878ZM442.908 238.507C438.977 234.576 433.645 232.369 428.086 232.369C422.527 232.369 417.195 234.576 413.264 238.507L199.714 452.055C197.767 454.007 196.224 456.324 195.173 458.872C194.122 461.42 193.583 464.15 193.586 466.907C193.594 472.474 195.813 477.81 199.756 481.742C203.698 485.673 209.04 487.877 214.608 487.869C220.175 487.861 225.511 485.642 229.442 481.7L442.908 268.151C446.839 264.22 449.047 258.888 449.047 253.329C449.047 247.77 446.839 242.438 442.908 238.507Z" fill="black"/>
</svg>
