<svg width="4559" height="1922" viewBox="0 0 4559 1922" fill="none" xmlns="http://www.w3.org/2000/svg">
<path d="M78.6035 875.504C78.6035 732.668 179.309 609.639 319.329 581.418L3077.26 25.5447C3158.16 9.23972 3242.2 26.978 3309.61 74.585L3968.99 540.289C4048.59 596.507 4095.92 687.885 4095.92 785.335V1444.48C4095.92 1610.17 3961.61 1744.48 3795.92 1744.48H378.603C212.918 1744.48 78.6035 1610.16 78.6035 1444.48V875.504Z" fill="url(#paint0_linear_351_225)" fill-opacity="0.3"/>
<path d="M3868.32 574.639L4511.33 945.434L4324.13 1269.28L3681.12 898.483L3868.32 574.639Z" fill="url(#paint1_linear_351_225)"/>
<path d="M4427.66 1048.16L4451.94 1062.16C4455.1 1063.99 4458.85 1064.48 4462.38 1063.53C4465.9 1062.59 4468.9 1060.29 4470.72 1057.13L4526.78 960.162C4530.44 953.782 4531.42 946.216 4529.52 939.116C4527.62 932.016 4522.98 925.957 4516.63 922.262L3886.21 558.733C3879.83 555.081 3872.26 554.101 3865.15 556.006C3858.04 557.911 3851.98 562.547 3848.27 568.901L3792.22 665.871C3790.4 669.026 3789.9 672.776 3790.84 676.294C3791.79 679.813 3794.09 682.813 3797.25 684.633L3821.53 698.636C3834.44 706.082 3843.86 718.35 3847.72 732.741C3851.57 747.132 3849.55 762.468 3842.09 775.374C3834.63 788.28 3822.34 797.7 3807.94 801.561C3793.53 805.422 3778.18 803.408 3765.27 795.962L3740.99 781.959C3737.83 780.139 3734.08 779.646 3730.56 780.59C3727.03 781.534 3724.03 783.838 3722.21 786.993L3666.15 883.962C3662.49 890.343 3661.51 897.908 3663.41 905.008C3665.31 912.108 3669.95 918.167 3676.3 921.862L4306.72 1285.39C4313.1 1289.04 4320.67 1290.02 4327.78 1288.12C4334.89 1286.21 4340.95 1281.58 4344.66 1275.22L4400.71 1178.25C4402.53 1175.1 4403.03 1171.35 4402.09 1167.83C4401.14 1164.31 4398.84 1161.31 4395.68 1159.49L4371.4 1145.49C4358.49 1138.04 4349.07 1125.77 4345.21 1111.38C4341.36 1096.99 4343.38 1081.66 4350.84 1068.75C4358.31 1055.84 4370.59 1046.42 4385 1042.56C4399.4 1038.7 4414.75 1040.72 4427.66 1048.16ZM4357.65 1169.28L4370.03 1176.42L4320.47 1261.6L3689.96 897.691L3739.14 812.62L3751.51 819.758C3770.74 830.845 3793.59 833.844 3815.04 828.095C3836.49 822.346 3854.78 808.32 3865.89 789.102C3877 769.885 3880.02 747.05 3874.28 725.622C3868.54 704.194 3854.51 685.927 3835.29 674.84L3822.91 667.701L3872.46 582.529L4502.97 946.433L4453.8 1031.5L4441.42 1024.37C4422.19 1013.28 4399.34 1010.28 4377.89 1016.03C4356.44 1021.78 4338.15 1035.8 4327.04 1055.02C4315.93 1074.24 4312.91 1097.07 4318.65 1118.5C4324.39 1139.93 4338.42 1158.2 4357.65 1169.28Z" fill="black"/>
<path d="M4300.62 862.404C4297.46 860.584 4293.71 860.091 4290.19 861.035C4286.66 861.979 4283.66 864.282 4281.84 867.437L4267.82 891.681C4266 894.836 4265.5 898.585 4266.45 902.103C4267.39 905.621 4269.69 908.62 4272.85 910.441C4276 912.261 4279.76 912.753 4283.28 911.809C4286.8 910.865 4289.8 908.563 4291.63 905.408L4305.64 881.163C4307.46 878.008 4307.96 874.259 4307.02 870.741C4306.07 867.223 4303.77 864.224 4300.62 862.404Z" fill="black"/>
<path d="M4174.57 1080.48C4171.42 1078.66 4167.66 1078.17 4164.14 1079.11C4160.62 1080.06 4157.62 1082.36 4155.79 1085.51L4141.78 1109.76C4139.96 1112.91 4139.46 1116.66 4140.4 1120.18C4141.35 1123.7 4143.65 1126.7 4146.8 1128.52C4149.96 1130.34 4153.71 1130.83 4157.23 1129.89C4160.76 1128.94 4163.76 1126.64 4165.58 1123.49L4179.6 1099.24C4181.42 1096.09 4181.92 1092.34 4180.97 1088.82C4180.03 1085.3 4177.73 1082.3 4174.57 1080.48Z" fill="black"/>
<path d="M4216.58 1007.79C4213.43 1005.97 4209.68 1005.48 4206.15 1006.42C4202.63 1007.37 4199.63 1009.67 4197.81 1012.83L4183.8 1037.06C4181.97 1040.21 4181.48 1043.96 4182.42 1047.48C4183.36 1051 4185.67 1054 4188.82 1055.82C4191.98 1057.64 4195.73 1058.13 4199.25 1057.19C4202.78 1056.24 4205.78 1053.94 4207.6 1050.78L4221.61 1026.55C4223.43 1023.4 4223.93 1019.65 4222.99 1016.13C4222.04 1012.61 4219.74 1009.61 4216.58 1007.79Z" fill="black"/>
<path d="M4258.6 935.105C4255.44 933.284 4251.69 932.792 4248.17 933.736C4244.65 934.68 4241.64 936.983 4239.82 940.138L4225.81 964.37C4223.99 967.525 4223.49 971.274 4224.43 974.792C4225.38 978.31 4227.68 981.309 4230.84 983.13C4233.99 984.95 4237.74 985.442 4241.27 984.498C4244.79 983.554 4247.79 981.252 4249.61 978.096L4263.62 953.864C4265.45 950.709 4265.94 946.96 4265 943.442C4264.06 939.924 4261.75 936.925 4258.6 935.105Z" fill="black"/>
<path d="M4019.37 796.549L4067.92 824.543C4071.08 826.364 4074.83 826.856 4078.35 825.912C4081.87 824.968 4084.88 822.665 4086.7 819.509C4088.52 816.353 4089.02 812.604 4088.08 809.085C4087.13 805.566 4084.83 802.566 4081.67 800.746L4033.13 772.752C4029.97 770.931 4026.22 770.439 4022.7 771.383C4019.17 772.327 4016.17 774.63 4014.35 777.786C4012.52 780.942 4012.03 784.691 4012.97 788.21C4013.91 791.729 4016.22 794.729 4019.37 796.549Z" fill="black"/>
<path d="M3977.36 869.24L4050.11 911.191C4053.27 913.012 4057.02 913.504 4060.54 912.56C4064.06 911.616 4067.07 909.312 4068.89 906.157C4070.71 903.001 4071.21 899.251 4070.27 895.732C4069.32 892.213 4067.02 889.213 4063.86 887.392L3991.12 845.441C3987.96 843.62 3984.21 843.128 3980.69 844.072C3977.16 845.016 3974.16 847.32 3972.33 850.475C3970.51 853.631 3970.02 857.381 3970.96 860.9C3971.9 864.419 3974.2 867.419 3977.36 869.24Z" fill="black"/>
<path d="M4046.11 974.073L3949.11 918.13C3945.95 916.309 3942.2 915.817 3938.67 916.761C3935.15 917.705 3932.15 920.008 3930.32 923.164C3928.5 926.32 3928 930.07 3928.95 933.589C3929.89 937.108 3932.19 940.108 3935.35 941.929L4032.36 997.872C4035.52 999.693 4039.27 1000.19 4042.79 999.241C4046.31 998.297 4049.32 995.994 4051.14 992.838C4052.96 989.682 4053.46 985.932 4052.52 982.413C4051.57 978.894 4049.27 975.894 4046.11 974.073Z" fill="black"/>
<rect width="804.568" height="405.23" transform="matrix(0.966028 0.258438 -0.2592 0.965824 3753.66 388.357)" fill="#8FB9B7"/>
<path d="M4472.15 727.244L4501.51 735.096C4505.32 736.117 4509.39 735.581 4512.81 733.606C4516.23 731.632 4518.73 728.38 4519.75 724.566L4551.2 607.375C4553.24 599.672 4552.15 591.478 4548.17 584.58C4544.18 577.682 4537.63 572.64 4529.94 570.553L3767.93 366.698C3760.22 364.664 3752.02 365.759 3745.12 369.744C3738.21 373.729 3733.16 380.28 3731.07 387.968L3699.62 505.16C3698.59 508.973 3699.13 513.036 3701.1 516.455C3703.08 519.873 3706.33 522.367 3710.15 523.388L3739.5 531.241C3755.11 535.416 3768.41 545.617 3776.49 559.598C3784.57 573.58 3786.75 590.197 3782.56 605.795C3778.38 621.393 3768.16 634.693 3754.17 642.77C3740.17 650.847 3723.54 653.039 3707.93 648.863L3678.58 641.011C3674.76 639.99 3670.7 640.526 3667.28 642.5C3663.85 644.475 3661.36 647.727 3660.33 651.541L3628.88 768.732C3626.84 776.434 3627.94 784.628 3631.92 791.527C3635.9 798.425 3642.46 803.467 3650.15 805.554L4412.16 1009.41C4419.87 1011.44 4428.07 1010.35 4434.97 1006.36C4441.88 1002.38 4446.93 995.827 4449.02 988.138L4480.47 870.947C4481.49 867.134 4480.96 863.071 4478.98 859.652C4477.01 856.234 4473.76 853.74 4469.94 852.719L4440.59 844.866C4424.98 840.691 4411.67 830.49 4403.6 816.509C4395.52 802.527 4393.34 785.909 4397.52 770.312C4401.71 754.714 4411.92 741.414 4425.92 733.337C4439.92 725.26 4456.55 723.068 4472.15 727.244ZM4432.87 873.625L4447.83 877.628L4419.88 980.651L3657.66 776.43L3685.25 673.618L3700.22 677.622C3723.45 683.839 3748.22 680.575 3769.06 668.549C3789.9 656.523 3805.11 636.719 3811.34 613.494C3817.57 590.269 3814.32 565.525 3802.29 544.706C3790.27 523.888 3770.46 508.699 3747.22 502.482L3732.25 498.479L3760.21 395.456L4522.43 599.676L4494.84 702.488L4479.87 698.485C4456.63 692.268 4431.87 695.532 4411.03 707.558C4390.19 719.584 4374.98 739.388 4368.75 762.613C4362.51 785.838 4365.77 810.582 4377.79 831.4C4389.82 852.219 4409.63 867.408 4432.87 873.625Z" fill="#222222"/>
<path d="M4029.89 499.619C4026.07 498.599 4022.01 499.135 4018.58 501.109C4015.16 503.083 4012.67 506.335 4011.64 510.147L4003.78 539.446C4002.76 543.259 4003.29 547.321 4005.26 550.739C4007.24 554.157 4010.49 556.651 4014.31 557.671C4018.12 558.692 4022.19 558.156 4025.61 556.182C4029.03 554.207 4031.53 550.956 4032.55 547.143L4040.41 517.844C4041.44 514.031 4040.9 509.969 4038.93 506.551C4036.95 503.134 4033.7 500.64 4029.89 499.619Z" fill="#222222"/>
<path d="M3959.19 763.167C3955.38 762.146 3951.31 762.682 3947.89 764.656C3944.47 766.631 3941.97 769.882 3940.95 773.695L3933.09 802.994C3932.06 806.807 3932.6 810.869 3934.57 814.287C3936.55 817.705 3939.8 820.198 3943.61 821.219C3947.43 822.239 3951.49 821.704 3954.91 819.729C3958.34 817.755 3960.83 814.504 3961.86 810.691L3969.72 781.392C3970.74 777.579 3970.21 773.517 3968.23 770.099C3966.26 766.681 3963.01 764.188 3959.19 763.167Z" fill="#222222"/>
<path d="M3982.76 675.323C3978.94 674.302 3974.88 674.838 3971.45 676.812C3968.03 678.786 3965.54 682.038 3964.51 685.85L3956.65 715.135C3955.63 718.948 3956.16 723.01 3958.14 726.428C3960.11 729.846 3963.37 732.339 3967.18 733.36C3971 734.381 3975.06 733.845 3978.48 731.87C3981.9 729.896 3984.4 726.645 3985.42 722.832L3993.28 693.547C3994.31 689.735 3993.77 685.672 3991.8 682.255C3989.82 678.837 3986.57 676.343 3982.76 675.323Z" fill="#222222"/>
<path d="M4006.32 587.478C4002.5 586.457 3998.44 586.993 3995.02 588.968C3991.6 590.942 3989.1 594.193 3988.08 598.006L3980.22 627.291C3979.19 631.104 3979.73 635.166 3981.7 638.584C3983.68 642.001 3986.93 644.495 3990.74 645.516C3994.56 646.536 3998.62 646 4002.05 644.026C4005.47 642.052 4007.96 638.8 4008.99 634.988L4016.85 605.703C4017.87 601.89 4017.34 597.828 4015.36 594.41C4013.39 590.992 4010.13 588.499 4006.32 587.478Z" fill="#222222"/>
<path d="M4174.96 601.229C4166.33 598.935 4157.21 599.249 4148.75 602.131C4140.29 605.013 4132.88 610.335 4127.44 617.423C4122.01 624.512 4118.79 633.05 4118.21 641.96C4117.63 650.869 4119.7 659.749 4124.17 667.48C4128.63 675.211 4135.29 681.445 4143.3 685.395C4151.31 689.345 4160.32 690.834 4169.18 689.674C4178.04 688.514 4186.35 684.757 4193.08 678.877C4199.81 672.997 4204.64 665.258 4206.97 656.638C4210.06 645.046 4208.43 632.706 4202.43 622.32C4196.43 611.934 4186.55 604.35 4174.96 601.229ZM4159.26 659.746C4156.32 658.944 4153.68 657.288 4151.68 654.989C4149.68 652.689 4148.41 649.848 4148.03 646.825C4147.65 643.803 4148.17 640.734 4149.53 638.008C4150.89 635.282 4153.03 633.02 4155.68 631.509C4158.33 629.997 4161.37 629.305 4164.41 629.518C4167.45 629.731 4170.36 630.841 4172.77 632.707C4175.18 634.572 4176.98 637.11 4177.95 640C4178.91 642.89 4179 646.001 4178.19 648.94C4177.11 652.877 4174.51 656.225 4170.96 658.25C4167.41 660.276 4163.2 660.814 4159.26 659.746Z" fill="#222222"/>
<path d="M4260.82 749.774C4252.18 747.448 4243.04 747.736 4234.56 750.602C4226.09 753.467 4218.65 758.781 4213.2 765.871C4207.74 772.961 4204.51 781.508 4203.92 790.429C4203.33 799.35 4205.4 808.245 4209.88 815.987C4214.35 823.729 4221.02 829.969 4229.04 833.918C4237.07 837.867 4246.09 839.348 4254.96 838.171C4263.83 836.995 4272.15 833.215 4278.87 827.31C4285.6 821.405 4290.41 813.641 4292.72 805.001C4295.79 793.448 4294.16 781.151 4288.18 770.802C4282.2 760.452 4272.36 752.892 4260.82 749.774ZM4245.11 808.291C4241.16 807.235 4237.8 804.654 4235.75 801.116C4233.71 797.578 4233.15 793.374 4234.21 789.427C4235.27 785.48 4237.86 782.115 4241.4 780.071C4244.94 778.028 4249.15 777.473 4253.1 778.53C4257.05 779.586 4260.41 782.167 4262.46 785.705C4264.5 789.243 4265.05 793.447 4264 797.394C4262.94 801.341 4260.35 804.706 4256.81 806.75C4253.27 808.793 4249.06 809.348 4245.11 808.291Z" fill="#222222"/>
<path d="M4311.93 658.051C4309.96 654.634 4306.71 652.141 4302.89 651.121C4299.08 650.1 4295.01 650.635 4291.59 652.609L4105.74 759.856C4104.04 760.837 4102.56 762.142 4101.37 763.697C4100.18 765.252 4099.3 767.025 4098.8 768.916C4097.78 772.736 4098.32 776.803 4100.3 780.222C4102.28 783.642 4105.54 786.134 4109.37 787.151C4113.19 788.168 4117.26 787.625 4120.68 785.643L4306.48 678.381C4309.9 676.407 4312.39 673.156 4313.42 669.343C4314.44 665.531 4313.91 661.469 4311.93 658.051Z" fill="#222222"/>
<path d="M2415.41 549.631C2403.58 549.631 2393.99 559.216 2393.99 571.04V1277.56C2393.99 1289.39 2403.58 1298.97 2415.41 1298.97H2588.05C2599.88 1298.97 2609.47 1289.39 2609.47 1277.56V1267.78C2609.47 1263.56 2611.14 1259.51 2614.12 1256.51L2746.52 1123.07C2754.78 1114.74 2766.03 1110.06 2777.76 1110.06H2876.07C2890.96 1110.06 2904.83 1117.59 2912.95 1130.07L2956.67 1197.3C2962.31 1205.97 2971.09 1212.12 2981.17 1214.46L3044.22 1229.08L3138.83 1257.44C3147.12 1259.93 3155.74 1261.19 3164.39 1261.19H3456.34C3485.09 1261.19 3512.81 1250.46 3534.08 1231.11C3535.57 1229.76 3536.95 1228.29 3538.22 1226.73L3545.09 1218.3C3553.36 1208.14 3555.9 1194.47 3551.82 1182.02C3548.74 1172.61 3542.16 1164.76 3533.43 1160.08L3472.14 1127.24C3441.05 1110.59 3406.34 1101.88 3371.08 1101.88H3305.4C3287.07 1101.88 3269.52 1094.45 3256.76 1081.28C3244.51 1068.64 3237.66 1051.73 3237.66 1034.13V859.635C3237.66 838.121 3247.84 817.876 3265.11 805.047L3266.23 804.217C3277.95 795.508 3292.17 790.805 3306.78 790.805H3375.84C3410.79 790.805 3444.7 778.914 3472 757.087L3559.76 686.926C3568.96 679.568 3573.27 667.679 3570.93 656.133C3568.3 643.222 3557.9 633.32 3544.88 631.334L3543.71 631.158C3534.58 629.765 3525.28 632.255 3518.06 638.026L3432.67 706.295C3417.78 718.201 3399.28 724.687 3380.22 724.687H3265.47C3241.53 724.687 3218.07 731.4 3197.75 744.064L3175.88 757.697C3168.9 762.05 3160.84 764.358 3152.61 764.358H2779.46C2768.22 764.358 2757.4 760.053 2749.23 752.326L2614.48 624.891C2611.28 621.869 2609.47 617.665 2609.47 613.266V571.04C2609.47 559.216 2599.88 549.631 2588.05 549.631H2415.41Z" fill="url(#paint2_linear_351_225)"/>
<path d="M3455.13 327.73V656.051C3455.13 664.784 3451.7 673.191 3445.17 678.992C3431.8 690.875 3407.94 709.918 3392.27 709.918C3375.47 709.918 3290.23 709.918 3246.69 709.918C3229.89 709.918 3213.48 714.677 3199.26 723.644L3182.99 733.908C3168.78 742.875 3152.31 747.634 3135.51 747.634H2915.16V447.5L3455.13 327.73Z" fill="url(#paint3_linear_351_225)"/>
<path d="M2910.24 331.009C2896.29 334.119 2882.82 342.349 2880.31 356.416C2879.05 363.473 2879.17 370.778 2880.74 377.919L2888.82 414.554C2891.67 427.468 2904.15 434.286 2917.07 431.438L3467.47 310.052C3476.82 307.991 3482.72 298.743 3480.66 289.396C3470.75 244.442 3426.27 216.037 3381.31 225.951L2910.24 331.009Z" fill="#222222"/>
<path d="M3258.63 918.704L3294.68 832.734C3296.23 832.788 3296.91 822.406 3297.32 808.84C3297.4 806.128 3299.61 803.963 3302.33 803.963H3372.13C3374.84 803.963 3377.06 806.128 3377.14 808.84C3377.55 822.406 3378.23 832.788 3379.78 832.734L3415.83 918.704V974.278L3379.78 1060.25C3378.23 1060.19 3377.55 1070.58 3377.14 1084.14C3377.06 1086.85 3374.84 1089.02 3372.13 1089.02H3302.33C3299.61 1089.02 3297.4 1086.85 3297.32 1084.14C3296.91 1070.58 3296.23 1060.19 3294.68 1060.25L3258.63 974.278V918.704Z" fill="url(#paint4_linear_351_225)"/>
<path d="M3473.93 396.717V588.89L3651.78 427.934C3676.96 405.144 3679.09 366.047 3656.53 340.608L3643.68 326.119C3621.12 300.679 3582.42 298.531 3557.24 321.32L3473.93 396.717Z" fill="#222222"/>
<ellipse cx="2499.93" cy="946.491" rx="80.3122" ry="79.3721" fill="url(#paint5_radial_351_225)"/>
<path fill-rule="evenodd" clip-rule="evenodd" d="M3734.48 633.137C3711.84 658.126 3637.01 627.24 3567.34 564.152C3497.67 501.063 3459.53 429.663 3482.16 404.674C3504.8 379.686 3579.63 410.572 3649.3 473.66C3669.74 492.171 3687.47 511.397 3701.74 529.957L3691.9 566.698C3677.66 544.669 3656.43 519.645 3629.63 495.378C3596.62 465.485 3563.29 444.111 3536.91 433.221C3523.59 427.725 3513.57 425.535 3507.08 425.324C3506.26 425.297 3505.56 425.301 3504.97 425.324C3505.01 425.917 3505.07 426.612 3505.18 427.42C3506.03 433.859 3509.2 443.618 3515.99 456.323C3529.43 481.499 3554 512.542 3587.01 542.434C3620.02 572.326 3653.35 593.7 3679.73 604.591C3693.05 610.087 3703.07 612.277 3709.56 612.488C3710.38 612.515 3711.08 612.511 3711.67 612.488C3711.67 612.417 3711.66 612.345 3711.66 612.272L3740.5 619.999C3739.64 625.195 3737.66 629.625 3734.48 633.137ZM3505.1 422.387C3505.11 422.391 3505.09 422.457 3505.05 422.574C3505.08 422.443 3505.1 422.384 3505.1 422.387ZM3502.24 425.674C3502.13 425.729 3502.06 425.749 3502.06 425.745C3502.06 425.741 3502.11 425.714 3502.24 425.674ZM3711.54 615.424C3711.54 615.428 3711.56 615.369 3711.59 615.238C3711.56 615.32 3711.55 615.376 3711.54 615.404C3711.54 615.416 3711.54 615.424 3711.54 615.424Z" fill="#222222"/>
<path d="M262.133 1782.3V1804.73L236.762 1816.14V1906.65C223.019 1911.11 207.823 1914.52 191.173 1916.88C174.788 1919.51 159.195 1920.82 144.395 1920.82C98.4094 1920.82 63.9203 1909.8 40.9276 1887.76C18.1992 1865.72 6.83496 1830.57 6.83496 1782.3C6.83496 1734.28 18.3313 1699.26 41.324 1677.22C64.5811 1654.92 98.938 1643.77 144.395 1643.77C173.466 1643.77 204.255 1647.31 236.762 1654.4V1724.05H209.012L202.273 1679.58C183.509 1675.12 164.084 1672.89 143.998 1672.89C118.891 1672.89 98.938 1676.3 84.1381 1683.12C69.6025 1689.95 59.0311 1701.36 52.424 1717.36C45.8169 1733.1 42.5133 1754.75 42.5133 1782.3C42.5133 1810.37 45.8169 1832.27 52.424 1848.02C59.0311 1863.76 69.4703 1875.04 83.7417 1881.86C98.2773 1888.42 117.966 1891.7 142.809 1891.7C165.273 1891.7 185.359 1889.07 203.066 1883.83V1816.14L177.695 1804.73V1782.3H262.133Z" fill="black"/>
<path d="M624.092 1670.92L590.793 1682.34V1811.02C590.793 1851.16 582.071 1879.76 564.628 1896.81C547.45 1913.6 520.889 1922 484.947 1922C448.211 1922 420.329 1913.6 401.301 1896.81C382.272 1879.76 372.758 1852.08 372.758 1813.78V1682.34L343.423 1670.92V1648.49H436.186V1670.92L406.851 1682.34V1811.02C406.851 1831.75 409.626 1848.15 415.176 1860.22C420.99 1872.02 429.579 1880.42 440.943 1885.4C452.572 1890.39 467.768 1892.88 486.532 1892.88C504.239 1892.88 518.511 1890.65 529.346 1886.19C540.182 1881.47 548.375 1873.46 553.925 1862.18C559.475 1850.64 562.25 1834.5 562.25 1813.78V1682.34L530.139 1670.92V1648.49H624.092V1670.92Z" fill="black"/>
<path d="M951.528 1724.05H929.725L918.228 1676.83H846.475V1882.65L879.775 1894.45V1916.1H779.083V1894.45L812.382 1882.65V1676.83H740.629L729.133 1724.05H707.33V1648.49H951.528V1724.05Z" fill="black"/>
<path d="M1163.93 1766.55C1185.86 1770.75 1202.11 1775.21 1212.69 1779.93C1223.52 1784.66 1231.32 1791.74 1236.08 1801.18C1241.1 1810.37 1243.61 1823.75 1243.61 1841.33C1243.61 1861 1240.04 1876.48 1232.9 1887.76C1225.77 1899.04 1214.54 1907.18 1199.21 1912.16C1183.88 1916.88 1163 1919.25 1136.57 1919.25C1100.89 1919.25 1067.86 1915.31 1037.47 1907.44V1837.39H1064.82L1071.56 1882.65C1092.7 1887.63 1114.77 1890.12 1137.76 1890.12C1157.32 1890.12 1172.12 1888.68 1182.16 1885.79C1192.47 1882.91 1199.47 1878.45 1203.17 1872.41C1206.87 1866.12 1208.72 1857.59 1208.72 1846.83C1208.72 1833.72 1207.14 1824.53 1203.96 1819.29C1200.79 1814.04 1194.45 1809.97 1184.94 1807.09C1175.42 1804.2 1157.05 1800.27 1129.83 1795.28L1119.92 1793.31C1098.25 1789.38 1081.47 1784.66 1069.58 1779.15C1057.95 1773.38 1049.62 1765.9 1044.6 1756.72C1039.84 1747.53 1037.47 1735.33 1037.47 1720.12C1037.47 1701.49 1040.9 1686.8 1047.77 1676.04C1054.91 1665.02 1066.01 1657.15 1081.07 1652.43C1096.14 1647.71 1116.22 1645.35 1141.33 1645.35C1172.25 1645.35 1204.23 1648.76 1237.26 1655.58V1724.45H1211.1L1204.76 1680.76C1184.67 1676.57 1163 1674.47 1139.74 1674.47C1121.51 1674.47 1107.5 1675.91 1097.72 1678.8C1087.94 1681.42 1081.2 1685.62 1077.5 1691.39C1074.07 1696.9 1072.35 1704.51 1072.35 1714.21C1072.35 1726.28 1074.07 1734.94 1077.5 1740.19C1081.2 1745.43 1087.81 1749.5 1097.33 1752.39C1107.1 1755.27 1125.21 1759.21 1151.64 1764.19L1163.93 1766.55Z" fill="black"/>
<path d="M1470.82 1672.89C1447.03 1672.89 1428 1676.43 1413.73 1683.52C1399.46 1690.34 1388.89 1701.62 1382.02 1717.36C1375.41 1733.1 1372.11 1754.35 1372.11 1781.11C1372.11 1808.4 1375.41 1830.18 1382.02 1846.44C1388.89 1862.45 1399.33 1873.99 1413.33 1881.07C1427.34 1888.16 1445.71 1891.7 1468.44 1891.7C1482.97 1891.7 1497.9 1890.52 1513.23 1888.16C1528.83 1885.53 1543.1 1881.47 1556.05 1875.96V1905.08C1544.95 1910.06 1531.6 1913.87 1516.01 1916.49C1500.42 1919.38 1484.56 1920.82 1468.44 1920.82C1380.43 1920.82 1336.43 1874.64 1336.43 1782.3C1336.43 1734.28 1348.06 1699.26 1371.31 1677.22C1394.57 1654.92 1428.79 1643.77 1473.99 1643.77C1500.42 1643.77 1527.77 1646.92 1556.05 1653.22V1722.87H1528.3L1521.56 1678.01C1505.17 1674.6 1488.26 1672.89 1470.82 1672.89Z" fill="black"/>
<path d="M1941.43 1670.92L1912.09 1682.34V1882.25L1941.43 1894.45V1916.1H1848.66V1894.45L1878 1882.25V1795.68H1722.6V1882.25L1751.93 1894.45V1916.1H1659.17V1894.45L1688.51 1882.25V1682.34L1659.17 1670.92V1648.49H1751.93V1670.92L1722.6 1682.34V1767.34H1878V1682.34L1848.66 1670.92V1648.49H1941.43V1670.92Z" fill="black"/>
<path d="M2272.55 1718.15H2249.16L2238.85 1676.83H2104.07V1767.34H2182.96L2188.9 1737.04H2210.7V1825.98H2188.9L2182.96 1795.68H2104.07V1887.76H2238.85L2249.16 1842.51H2272.55V1916.1H2040.64V1894.45L2069.97 1882.65V1682.34L2040.64 1670.92V1648.49H2272.55V1718.15Z" fill="black"/>
<path d="M2463.38 1670.92L2434.04 1682.34V1882.65L2463.38 1894.45V1916.1H2370.62V1894.45L2399.95 1882.65V1682.34L2370.62 1670.92V1648.49H2463.38V1670.92Z" fill="black"/>
<path d="M2843.06 1648.49V1670.92L2813.72 1682.34V1916.1H2773.29L2620.66 1690.6V1882.65L2651.98 1894.45V1916.1H2562.39V1894.45L2591.72 1882.65V1682.34L2562.39 1670.92V1648.49H2632.16L2784.39 1873.6V1682.34L2753.07 1670.92V1648.49H2843.06Z" fill="black"/>
<path d="M3169.96 1718.15H3146.57L3136.26 1676.83H3001.48V1767.34H3080.37L3086.31 1737.04H3108.11V1825.98H3086.31L3080.37 1795.68H3001.48V1887.76H3136.26L3146.57 1842.51H3169.96V1916.1H2938.05V1894.45L2967.38 1882.65V1682.34L2938.05 1670.92V1648.49H3169.96V1718.15Z" fill="black"/>
<path d="M3294.98 1865.72C3303.44 1865.72 3310.05 1868.09 3314.8 1872.81C3319.56 1877.27 3321.94 1883.83 3321.94 1892.48C3321.94 1901.14 3319.56 1907.83 3314.8 1912.56C3310.05 1917.02 3303.44 1919.25 3294.98 1919.25C3286.53 1919.25 3279.92 1917.02 3275.16 1912.56C3270.41 1907.83 3268.03 1901.14 3268.03 1892.48C3268.03 1883.83 3270.41 1877.27 3275.16 1872.81C3279.92 1868.09 3286.53 1865.72 3294.98 1865.72Z" fill="black"/>
<path d="M3534.45 1672.89C3510.66 1672.89 3491.63 1676.43 3477.36 1683.52C3463.09 1690.34 3452.52 1701.62 3445.65 1717.36C3439.04 1733.1 3435.74 1754.35 3435.74 1781.11C3435.74 1808.4 3439.04 1830.18 3445.65 1846.44C3452.52 1862.45 3462.96 1873.99 3476.96 1881.07C3490.97 1888.16 3509.34 1891.7 3532.07 1891.7C3546.6 1891.7 3561.54 1890.52 3576.86 1888.16C3592.46 1885.53 3606.73 1881.47 3619.68 1875.96V1905.08C3608.58 1910.06 3595.23 1913.87 3579.64 1916.49C3564.05 1919.38 3548.19 1920.82 3532.07 1920.82C3444.06 1920.82 3400.06 1874.64 3400.06 1782.3C3400.06 1734.28 3411.69 1699.26 3434.94 1677.22C3458.2 1654.92 3492.43 1643.77 3537.62 1643.77C3564.05 1643.77 3591.4 1646.92 3619.68 1653.22V1722.87H3591.93L3585.19 1678.01C3568.8 1674.6 3551.89 1672.89 3534.45 1672.89Z" fill="black"/>
<path d="M3845.3 1643.77C3885.47 1643.77 3916.79 1655.31 3939.25 1678.4C3961.71 1701.23 3972.95 1735.86 3972.95 1782.3C3972.95 1828.73 3961.71 1863.49 3939.25 1886.58C3916.79 1909.41 3885.47 1920.82 3845.3 1920.82C3805.13 1920.82 3773.81 1909.41 3751.34 1886.58C3728.88 1863.49 3717.65 1828.73 3717.65 1782.3C3717.65 1735.86 3728.88 1701.23 3751.34 1678.4C3773.81 1655.31 3805.13 1643.77 3845.3 1643.77ZM3845.3 1672.89C3823.89 1672.89 3806.45 1676.43 3792.97 1683.52C3779.75 1690.6 3769.84 1702.15 3763.24 1718.15C3756.63 1734.15 3753.33 1755.53 3753.33 1782.3C3753.33 1809.06 3756.63 1830.44 3763.24 1846.44C3769.84 1862.45 3779.75 1873.99 3792.97 1881.07C3806.45 1888.16 3823.89 1891.7 3845.3 1891.7C3866.7 1891.7 3884.01 1888.16 3897.23 1881.07C3910.71 1873.99 3920.75 1862.45 3927.36 1846.44C3933.96 1830.44 3937.27 1809.06 3937.27 1782.3C3937.27 1755.53 3933.96 1734.15 3927.36 1718.15C3920.75 1702.15 3910.71 1690.6 3897.23 1683.52C3884.01 1676.43 3866.7 1672.89 3845.3 1672.89Z" fill="black"/>
<path d="M4365.62 1682.34V1882.65L4394.96 1894.45V1916.1H4304.18V1894.45L4331.53 1882.65V1674.47L4241.54 1882.65H4214.98L4124.6 1674.47V1882.65L4151.95 1894.45V1916.1H4066.72V1894.45L4096.05 1882.65V1682.34L4066.72 1670.92V1648.49H4150.36L4231.63 1838.57L4312.9 1648.49H4394.96V1670.92L4365.62 1682.34Z" fill="black"/>
<path d="M263.641 1040.99L101.756 1234.85H263.641V1299.48H0V1234.85L161.885 1040.99H0V976.362H263.641V1040.99Z" fill="#408451"/>
<path d="M485.818 976.362H569.073V1211.77C569.073 1244.09 561.673 1267.63 546.872 1282.4C532.379 1296.86 508.944 1304.09 476.567 1304.09H370.186C337.809 1304.09 314.22 1296.86 299.419 1282.4C284.926 1267.63 277.68 1244.09 277.68 1211.77V976.362H360.935V1211.77C360.935 1230.24 370.186 1239.47 388.687 1239.47H458.066C476.567 1239.47 485.818 1230.24 485.818 1211.77V976.362Z" fill="#408451"/>
<path d="M878.967 1292.55C806.813 1300.25 740.517 1304.09 680.08 1304.09C649.861 1304.09 627.66 1297.01 613.476 1282.86C599.292 1268.7 592.199 1246.55 592.199 1216.39V1068.68C592.199 1036.37 599.446 1012.98 613.938 998.519C628.739 983.748 652.328 976.362 684.705 976.362H851.216V1040.99H703.206C684.705 1040.99 675.455 1050.22 675.455 1068.68V1216.39C675.455 1223.47 677.459 1229.16 681.468 1233.47C685.784 1237.47 691.489 1239.47 698.581 1239.47C734.042 1239.47 766.419 1238.7 795.712 1237.16V1170.23H735.583V1114.84H878.967V1292.55Z" fill="#408451"/>
<path d="M1179.7 1119.46L1114.95 1234.85H1050.19L985.439 1119.46V1299.48H902.184V976.362H990.065L1082.57 1147.15L1175.08 976.362H1262.96V1299.48H1179.7V1119.46Z" fill="#408451"/>
<path d="M1353.33 1299.48H1263.14L1385.71 976.362H1478.21L1600.78 1299.48H1510.59L1489.78 1241.78H1374.14L1353.33 1299.48ZM1394.96 1181.77H1468.96L1431.96 1073.3L1394.96 1181.77Z" fill="#408451"/>
<path d="M1799.87 976.362H1883.12V1211.77C1883.12 1244.09 1875.72 1267.63 1860.92 1282.4C1846.43 1296.86 1823 1304.09 1790.62 1304.09H1684.24C1651.86 1304.09 1628.27 1296.86 1613.47 1282.4C1598.98 1267.63 1591.73 1244.09 1591.73 1211.77V976.362H1674.99V1211.77C1674.99 1230.24 1684.24 1239.47 1702.74 1239.47H1772.12C1790.62 1239.47 1799.87 1230.24 1799.87 1211.77V976.362Z" fill="#408451"/>
<path d="M1998.76 1234.85H2167.58V1299.48H1915.5V976.362H1998.76V1234.85Z" fill="#408451"/>
<path d="M2144.54 1170.23V1105.61H2334.18V1170.23H2144.54Z" fill="#408451"/>
<path d="M864.638 882.481V727.151H872.568V882.481H864.638ZM896.359 882.481V727.151H904.29V882.481H896.359ZM912.22 882.481V727.151H920.15V882.481H912.22ZM943.942 882.481V727.151H951.872V882.481H943.942ZM975.663 882.481V727.151H983.593V882.481H975.663ZM991.524 882.481V727.151H1015.31V882.481H991.524ZM1023.25 882.481V727.151H1047.04V882.481H1023.25ZM1054.97 882.481V727.151H1062.9V882.481H1054.97ZM1070.83 882.481V727.151H1078.76V882.481H1070.83ZM1102.55 882.481V727.151H1110.48V882.481H1102.55Z" fill="black"/>
<path d="M1158.05 882.481V727.151H1165.98V882.481H1158.05ZM1189.77 882.481V727.151H1197.7V882.481H1189.77ZM1205.63 882.481V727.151H1213.56V882.481H1205.63ZM1237.35 882.481V727.151H1245.28V882.481H1237.35ZM1269.08 882.481V727.151H1277.01V882.481H1269.08ZM1284.94 882.481V727.151H1308.73V882.481H1284.94ZM1316.66 882.481V727.151H1324.59V882.481H1316.66ZM1332.52 882.481V727.151H1340.45V882.481H1332.52ZM1364.24 882.481V727.151H1372.17V882.481H1364.24ZM1380.1 882.481V727.151H1403.89V882.481H1380.1Z" fill="black"/>
<path d="M1451.46 882.481V727.151H1459.39V882.481H1451.46ZM1483.19 882.481V727.151H1491.12V882.481H1483.19ZM1499.05 882.481V727.151H1506.98V882.481H1499.05ZM1530.77 882.481V727.151H1538.7V882.481H1530.77ZM1562.49 882.481V727.151H1570.42V882.481H1562.49ZM1578.35 882.481V727.151H1602.14V882.481H1578.35ZM1625.93 882.481V727.151H1633.86V882.481H1625.93ZM1641.79 882.481V727.151H1649.72V882.481H1641.79ZM1657.65 882.481V727.151H1665.58V882.481H1657.65ZM1673.51 882.481V727.151H1697.3V882.481H1673.51Z" fill="black"/>
<path d="M1744.88 882.481V727.151H1752.81V882.481H1744.88ZM1776.6 882.481V727.151H1784.53V882.481H1776.6ZM1792.46 882.481V727.151H1800.39V882.481H1792.46ZM1824.18 882.481V727.151H1832.11V882.481H1824.18ZM1855.9 882.481V727.151H1863.83V882.481H1855.9ZM1871.76 882.481V727.151H1879.69V882.481H1871.76ZM1887.62 882.481V727.151H1911.41V882.481H1887.62ZM1919.34 882.481V727.151H1927.27V882.481H1919.34ZM1935.21 882.481V727.151H1943.14V882.481H1935.21ZM1966.93 882.481V727.151H1990.72V882.481H1966.93Z" fill="black"/>
<path d="M1.70874 1454.3C1.70874 1426.96 23.8831 1404.8 51.2365 1404.8H4331.76C4359.11 1404.8 4381.29 1426.96 4381.29 1454.3C4381.29 1481.64 4359.11 1503.8 4331.76 1503.8H51.2365C23.883 1503.8 1.70874 1481.64 1.70874 1454.3Z" fill="#408451"/>
<defs>
<linearGradient id="paint0_linear_351_225" x1="2087.26" y1="0" x2="2087.26" y2="1744.48" gradientUnits="userSpaceOnUse">
<stop stop-color="#408451" stop-opacity="0.3"/>
<stop offset="1" stop-color="#8FB9B7"/>
</linearGradient>
<linearGradient id="paint1_linear_351_225" x1="4189.82" y1="760.036" x2="4002.96" y2="1084.08" gradientUnits="userSpaceOnUse">
<stop stop-color="#405352"/>
<stop offset="0.675" stop-color="#8FB9B7"/>
</linearGradient>
<linearGradient id="paint2_linear_351_225" x1="3040.44" y1="471.548" x2="2983.8" y2="1377.06" gradientUnits="userSpaceOnUse">
<stop offset="0.03" stop-color="#2F5839"/>
<stop offset="0.235" stop-color="#408451"/>
<stop offset="0.72" stop-color="#408451"/>
<stop offset="1" stop-color="#2F5839"/>
</linearGradient>
<linearGradient id="paint3_linear_351_225" x1="3185.15" y1="327.73" x2="3185.15" y2="747.634" gradientUnits="userSpaceOnUse">
<stop stop-color="#2F5839"/>
<stop offset="1" stop-color="#408451"/>
</linearGradient>
<linearGradient id="paint4_linear_351_225" x1="3258.63" y1="945.858" x2="3415.5" y2="945.858" gradientUnits="userSpaceOnUse">
<stop stop-color="#2F5839"/>
<stop offset="1" stop-color="#408451"/>
</linearGradient>
<radialGradient id="paint5_radial_351_225" cx="0" cy="0" r="1" gradientUnits="userSpaceOnUse" gradientTransform="translate(2499.93 946.491) rotate(90) scale(79.3721 80.3122)">
<stop offset="0.685" stop-color="#D9D9D9"/>
<stop offset="1" stop-color="#737373"/>
</radialGradient>
</defs>
</svg>
